<svg xmlns="http://www.w3.org/2000/svg" viewBox="0 0 588.56 603.25"><defs><style>.a{fill:#2196f3;}.b{fill:#fff;}.c{fill:#f44336;}.d{fill:#009688;}.e{fill:#ff9800;}.f{fill:#0072ce;}.g{fill:none;stroke:#0072ce;stroke-miterlimit:10;stroke-width:10px;stroke-dasharray:16.03 16.03;}</style></defs><title>インシデントレスポンスサイクル</title><path class="a" d="M350,96V343.84h86.38l37.76,25.8,37.76-25.8h86.38C598.28,206.84,487,96,350,96Zm0,161.89V182.43l25.8,37.76Z" transform="translate(-55.72 -49.92)"/><path class="b" d="M426.28,228a26.27,26.27,0,0,0-5.18-2.37l1.18-1.66a28.41,28.41,0,0,1,5.18,2.14ZM450,241.47H436.8v6.27h-2.4v-6.27H421.51v-2.14H434.4V236.7h2.4v2.62H450Zm-28-5.73a75.07,75.07,0,0,0,6.27-6.56l1.28,1.6c-1.82,2.24-4,4.7-5.89,6.78Zm6.56-12.8a27.79,27.79,0,0,0-5.09-2.62l1.18-1.63a25.79,25.79,0,0,1,5.15,2.4Zm3.07,3.07a22.94,22.94,0,0,1-2.18,2.14,15.76,15.76,0,0,0-1.86-1.63,22.63,22.63,0,0,0,6.46-8.16l2.27.67a24.81,24.81,0,0,1-1.66,3h4.45a33.94,33.94,0,0,0,1.66-3.49l2.53.48c-.58,1-1.22,2.08-1.79,3h7.07v1.89h-7.26v2.37h6.33v1.79h-6.33v2.27h6.4v1.79h-6.4v2.43h8.13v1.92H431.65Zm7.46-2.11h-5.18v2.37h5.18Zm0,4.16h-5.18v2.27h5.18Zm0,4.06h-5.18v2.43h5.18Z" transform="translate(-55.72 -49.92)"/><path class="b" d="M461.44,219.29a55.13,55.13,0,0,1-2.5,6.24v22.17h-2.27V229.79a32.64,32.64,0,0,1-3,4.29,17.29,17.29,0,0,0-1.25-2.4,38.43,38.43,0,0,0,6.82-13Zm20.93,10.11h-18v4.77c0,4-.42,9.7-2.94,13.53a8.57,8.57,0,0,0-1.73-1.47c2.27-3.55,2.53-8.48,2.53-12.1v-6.85h20.16Zm-15.55-5.82h-5.18V221.5h5.18v-2.72H469v2.72h6v-2.72h2.24v2.72h5v2.08h-5v2.62H475v-2.62h-6v2.62h-2.18Zm14.75,21.82c0,1.06-.19,1.63-.93,2a10.06,10.06,0,0,1-3.87.35,9,9,0,0,0-.61-1.86c1.38,0,2.5,0,2.88,0s.45-.1.45-.45v-2.94h-4.7v5.06h-1.92v-5.06h-4.51v5.25h-2v-16h15.26Zm-13.21-11.84v2.78h4.51v-2.78Zm4.51,7.2V238h-4.51v2.75Zm1.92-7.2v2.78h4.7v-2.78Zm4.7,7.2V238h-4.7v2.75Z" transform="translate(-55.72 -49.92)"/><path class="c" d="M511.89,343.84l-37.76,25.8-37.76-25.8H350v86.87l-25.8,37.76L350,506.22V592.6c137,0,248.28-110.76,248.28-248.76Z" transform="translate(-55.72 -49.92)"/><path class="b" d="M402.63,458.81c1.82,3.84,4.38,5.41,8.06,6.66a6.11,6.11,0,0,0-1.38,2c-3.81-1.47-6.46-3.33-8.35-7.33-1.15,2.88-3.68,5.5-9.15,7.33a6.33,6.33,0,0,0-1.28-1.79c5.57-1.79,7.78-4.22,8.61-6.88h-6.43v-8.22h6.91v-2.94h-4.86v-1.5a23.45,23.45,0,0,1-2.69,1.66,7,7,0,0,0-.42-.83v.19H388.2v2.4c.9,1.15,3.33,4.64,3.84,5.47l-1.31,1.89a48.5,48.5,0,0,0-2.53-4.61v15H386V452.5a33.43,33.43,0,0,1-3.9,8.8,17,17,0,0,0-1.25-2.08c2-2.69,4-7.71,5-12.06h-4.29V445H386V438.1h2.24V445h3.46v.54a21,21,0,0,0,7.93-7.33h2.14a23.75,23.75,0,0,0,9.18,7.49,12.54,12.54,0,0,0-1.28,2.08,29,29,0,0,1-2.75-1.7v1.6h-5.12v2.94h7.17v8.22Zm-3.07-2c0-.54.06-1.12.06-1.66V452.5h-4.8v4.35Zm6.72-11.23a25.8,25.8,0,0,1-5.5-5.34,23.71,23.71,0,0,1-5.28,5.34Zm-4.51,6.88v2.75c0,.54,0,1.06-.06,1.6h5.06V452.5Z" transform="translate(-55.72 -49.92)"/><path class="b" d="M422.21,449.88c0,.32,0,.7,0,1.09h6v2.27h-6.14c-.06.7-.19,1.44-.32,2.14,1.5,1.5,5.38,5.82,6.37,6.94l-1.6,2c-1.09-1.57-3.58-4.58-5.31-6.53a17.44,17.44,0,0,1-6.62,9.44,7.89,7.89,0,0,0-1.66-1.76,16.1,16.1,0,0,0,6.78-12.25h-6.43V451h6.59V444.6h-2.43a23.75,23.75,0,0,1-2.59,5,12.47,12.47,0,0,0-2-1.38c1.89-2.46,3.2-6.27,4-10.14l2.3.45a33.71,33.71,0,0,1-1,3.84h9.12v2.21h-5.06Zm18.43-9V466.1h-2.37v-2.21h-6.75v2.53h-2.3V440.89Zm-2.37,20.77V443.13h-6.75v18.53Z" transform="translate(-55.72 -49.92)"/><path class="b" d="M469,445.85c-.7.45-1.5.86-2.43,1.34a106.78,106.78,0,0,0-9.63,5.22c-2.94,1.92-4.7,4-4.7,6.4,0,2.62,2.5,4.26,7.49,4.26A46.69,46.69,0,0,0,469.89,462v2.88a62.18,62.18,0,0,1-10,.77c-6,0-10.27-1.79-10.27-6.53,0-3.26,2.08-5.86,5.47-8.22a105,105,0,0,1-4.61-9.76l2.53-1a72.85,72.85,0,0,0,4.26,9.38c3-1.79,6.4-3.46,8.13-4.45a12.67,12.67,0,0,0,2.27-1.5Z" transform="translate(-55.72 -49.92)"/><path class="b" d="M488.64,439.48a33,33,0,0,1-10,13.15,16.15,16.15,0,0,0-2-1.86,26.92,26.92,0,0,0,9.57-12Zm13,10.66s0,.83-.06,1.15c-.45,9.82-.93,13.5-2,14.72a3.21,3.21,0,0,1-2.46,1.12,45.71,45.71,0,0,1-5-.06,5.77,5.77,0,0,0-.8-2.37c2.08.19,4.06.22,4.8.22s1.06-.06,1.34-.42c.83-.8,1.28-4,1.66-12.06h-8.26c-.83,6.3-2.88,12.09-11,15a9.43,9.43,0,0,0-1.54-2.08c7.52-2.5,9.28-7.58,10-13h-6.53v-2.3Zm-4.45-11.42a33.86,33.86,0,0,0,9.63,11.52,12.27,12.27,0,0,0-2,2.11,42.34,42.34,0,0,1-9.92-12.74Z" transform="translate(-55.72 -49.92)"/><path class="b" d="M519.68,457.4c-.58-1.06-1.89-3-3-4.58v14.46h-2.24V452a34.88,34.88,0,0,1-4.45,9.34,14.29,14.29,0,0,0-1.25-2.14c2.14-2.66,4.32-7.65,5.38-12h-4.64V445h5V438.1h2.24V445h4.38v2.24h-4.38V450c1,1.12,3.81,4.61,4.48,5.47Zm18.72-6.14h-4.74v16.06H531.3V451.26h-5.79c-.1,4.9-.9,11.26-4.42,15.93a7.11,7.11,0,0,0-1.79-1.57c3.58-4.74,3.94-11.17,3.94-15.93v-9l2,.61a52.55,52.55,0,0,0,9.7-2.82l2,1.82a58.72,58.72,0,0,1-11.42,3V449H538.4Z" transform="translate(-55.72 -49.92)"/><path class="d" d="M350,343.84H263.62L225.86,318l-37.76,25.8H101.72C101.72,481.84,213,592.6,350,592.6V506.22l-25.8-37.76L350,430.71Z" transform="translate(-55.72 -49.92)"/><path class="b" d="M197.5,432.69l.13,2.21c-5.34.9-11,1.82-14.94,2.53l-.35-2.4c1.79-.26,4.06-.58,6.53-1V429h-5.5v-2.14h5.5v-3.74h2.3v3.74h5.47V429h-5.47v4.74ZM197,422.35h-14.4v-2.18h6.24v-4.38h-5.25v-2.18h5.25v-4.13h2.3v4.13h5.18v2.18h-5.18v4.38H197Zm14.59-3.1h-3.14v16.38c0,1.47-.42,2.14-1.34,2.56a16.19,16.19,0,0,1-5.18.48,9.64,9.64,0,0,0-.93-2.34c2,.06,3.81,0,4.32,0s.8-.19.8-.74V419.25H197.5v-2.3h8.64v-7.17h2.34v7.17h3.14Zm-9.79,11a74.58,74.58,0,0,0-3.1-7.36l2-.74c1.15,2.3,2.56,5.41,3.2,7.2Z" transform="translate(-55.72 -49.92)"/><path class="b" d="M223.54,411.64c-.16,1.05-.26,2.14-.32,3.17-.13,3.58-.38,11.1-.38,15.84,0,3.46,2.27,4.67,5.22,4.67,5.79,0,9.09-3.26,11.36-6.56l1.76,2.21a15.79,15.79,0,0,1-13.21,7c-4.54,0-7.68-1.92-7.68-7.07,0-4.7.32-12.7.32-16.06a16.35,16.35,0,0,0-.29-3.2Zm11.9,7.65-1.89.86a39.16,39.16,0,0,0-3-5.18l1.82-.77A52,52,0,0,1,235.45,419.28Zm4.22-1.73-1.86.9a36.2,36.2,0,0,0-3.1-5.05l1.79-.83A47.87,47.87,0,0,1,239.67,417.55Z" transform="translate(-55.72 -49.92)"/><path class="b" d="M253.5,432.24c1.5,2.34,4.29,3.42,8,3.58,3.49.13,10.59,0,14.33-.22A10.86,10.86,0,0,0,275,438c-3.49.13-10,.19-13.57.06-4.16-.16-7-1.31-9.06-3.78-1.54,1.34-3.14,2.72-4.83,4.1L246.3,436a53.45,53.45,0,0,0,4.86-3.65v-8.1h-4.45V422h6.78Zm-1-15.46a22.08,22.08,0,0,0-5.44-5.05l1.76-1.44a24.35,24.35,0,0,1,5.57,4.93Zm13.31-5.66c.8,9.76,3.26,17.31,9.66,20.61a11.07,11.07,0,0,0-1.89,1.79c-4.48-2.62-7.07-7.14-8.51-13-1.66,5.73-4.38,10.08-8.48,13a13.91,13.91,0,0,0-1.86-1.76c4.67-3,7.36-8,8.64-14.5l1,.16c-.22-1.31-.38-2.66-.54-4.06H258v-2.24Z" transform="translate(-55.72 -49.92)"/><path class="b" d="M298.42,411.6c-.19.77-.38,1.86-.54,2.46s-.32,1.41-.51,2.14a9.94,9.94,0,0,1,8.58,10.21c0,6.3-4.51,10.17-11.29,11.1l-1.54-2.27c6.59-.58,10.27-4.06,10.27-8.93a7.69,7.69,0,0,0-6.59-7.9,41.22,41.22,0,0,1-4.64,10.78,18.78,18.78,0,0,0,2,2.21l-2,1.63c-.51-.58-1-1.15-1.5-1.79-2,2.37-3.9,3.94-6.27,3.94s-4.45-2-4.45-5.76a13.33,13.33,0,0,1,4.9-9.79c-.35-1-.67-2-1-2.91a24.26,24.26,0,0,0-1-2.85l2.66-.83c.16.86.42,1.92.64,2.78s.45,1.54.74,2.43A16.09,16.09,0,0,1,295,416c.19-.77.35-1.54.48-2.27a11.76,11.76,0,0,0,.19-2.4Zm-9.21,17.63c-.26-.38-.51-.8-.77-1.21a39.58,39.58,0,0,1-2.82-6.08,10.78,10.78,0,0,0-3.39,7.33c0,2.11.93,3.39,2.37,3.39S287.8,431.09,289.21,429.23Zm1.47-2.18a40.45,40.45,0,0,0,3.68-8.8,13.6,13.6,0,0,0-6.75,2.18A35.52,35.52,0,0,0,290,426C290.23,426.35,290.46,426.71,290.68,427.06Z" transform="translate(-55.72 -49.92)"/><path class="b" d="M180.76,482.06a52.59,52.59,0,0,0-2.91-4.61V492h-2.27V476.9a33.24,33.24,0,0,1-4.29,9.18,12.81,12.81,0,0,0-1.22-2.14c2.08-2.69,4.19-7.68,5.22-12.06h-4.48v-2.21h4.77v-6.85h2.27v6.85H182v2.21h-4.19v2.78c1,1.12,3.74,4.64,4.38,5.5Zm18.59-1.25c-1.7,1.34-3.78,2.82-5.54,3.94a13.94,13.94,0,0,0,6.11,5.38,8.77,8.77,0,0,0-1.57,2c-5-2.5-7.94-7.65-9.54-14.14H186v10.27l6.11-1.22.19,2.11c-3.65.86-7.55,1.66-10.46,2.3l-.67-2.3q1.15-.19,2.59-.48V464.52h13.89V478h-6.72a23.51,23.51,0,0,0,2,5.15,43,43,0,0,0,4.83-4.06ZM186,466.63v3.55h9.34v-3.55Zm0,9.28h9.34V472.3H186Z" transform="translate(-55.72 -49.92)"/><path class="b" d="M206.1,481.35a28.17,28.17,0,0,1-2.27,8.13,8.34,8.34,0,0,0-1.86-.9,23,23,0,0,0,2.08-7.62Zm5.38-8.19a25.35,25.35,0,0,1,3,6.53l-1.79.8a14.9,14.9,0,0,0-.58-1.86l-2.53.16V492.1h-2.11V478.92c-1.82.1-3.55.19-5,.29l-.19-2.11,2.11-.1c.67-.86,1.41-1.89,2.11-2.94a28.55,28.55,0,0,0-4.13-4.54l1.22-1.54c.32.26.61.54.93.83a40.48,40.48,0,0,0,2.88-6l2.08.83c-1.09,2.11-2.43,4.64-3.62,6.43a25.53,25.53,0,0,1,1.86,2.08,65.33,65.33,0,0,0,3.23-5.73l2,.9a109.75,109.75,0,0,1-6.37,9.54l4.74-.19a24.37,24.37,0,0,0-1.5-2.88Zm.9,7.58a29.67,29.67,0,0,1,2,5.82l-1.82.61a31.31,31.31,0,0,0-2-5.86Zm15,9.06c1.76,0,2-.8,2.24-4.54a8.22,8.22,0,0,0,2.11.9c-.35,4.42-1.09,5.73-4.22,5.73h-7.33c-3.39,0-4.45-.74-4.45-3.84v-14c-.32.45-.67.86-1,1.25a13.27,13.27,0,0,0-1.92-1.5,31.4,31.4,0,0,0,6.21-11l2.27.58c-.29.8-.58,1.6-.93,2.37h5.12l.42-.13,1.5,1a39.27,39.27,0,0,1-2.46,5.09h5.54v11.17h-2.18v-1.22H218V488c0,1.44.35,1.76,2.37,1.76Zm-7.94-22c-.67,1.34-1.38,2.66-2.11,3.84h5.34a35.38,35.38,0,0,0,1.76-3.84ZM218,479.53h4V473.8h-4Zm10.37-5.73h-4.29v5.73h4.29Z" transform="translate(-55.72 -49.92)"/><path class="b" d="M280.57,482.18a14.17,14.17,0,0,1-5.15,5.66,27.8,27.8,0,0,0,7.9,2.18,9.64,9.64,0,0,0-1.41,2,25.92,25.92,0,0,1-8.67-2.91,33.37,33.37,0,0,1-10,3,7.78,7.78,0,0,0-1.06-2,34,34,0,0,0,9-2.34,17.39,17.39,0,0,1-3.46-3.39,22.08,22.08,0,0,1-3.65,2.72c-.38-.38-1.22-1.15-1.66-1.5a18.59,18.59,0,0,0,6.91-6.24h-3.3v-8.83a21,21,0,0,1-1.76,2.21,15.48,15.48,0,0,0-2-1.38q-.91,1.44-2,2.88v17.89h-2.21V476.84a32.55,32.55,0,0,1-3.62,3.42,17.72,17.72,0,0,0-1.34-2.11,29.84,29.84,0,0,0,7.84-8.83l2.11.74c-.19.35-.42.74-.64,1.09a22.89,22.89,0,0,0,5-8.35l2.34.54a22.33,22.33,0,0,1-1.15,2.72h14v2h-15a23.32,23.32,0,0,1-1.28,2.11h14.17v9.22h-8.77l.1,0a18,18,0,0,1-1.44,2.14h8.29l.42-.1Zm-18.14-18.53a34,34,0,0,1-7.55,7.58,14,14,0,0,0-1.34-1.73,25.59,25.59,0,0,0,6.72-6.66Zm5.82,10.3h10.08v-2.18H268.25Zm0,3.74h10.08v-2.18H268.25Zm1.12,5.57a13.3,13.3,0,0,0,4,3.49,13.56,13.56,0,0,0,4.06-3.49Z" transform="translate(-55.72 -49.92)"/><path class="b" d="M288.16,464.14h2.46V492h-2.46Zm24.51.93v26.69H310.2v-2.11H298V492h-2.4V465.06ZM298,467.3v8.61H310.2V467.3ZM310.2,487.4v-9.25H298v9.25Z" transform="translate(-55.72 -49.92)"/><path class="e" d="M350,182.43V96C213,96,101.72,206.84,101.72,343.84h86.38L225.86,318l37.76,25.8H350v-85.9l25.8-37.76Z" transform="translate(-55.72 -49.92)"/><path class="b" d="M174.6,206.44a50.18,50.18,0,0,1-8.58,6.94v13.7a24.14,24.14,0,0,0,.19,3.42h-3.14a29.76,29.76,0,0,0,.19-3.42V215a64,64,0,0,1-12,5l-1.47-2.5a50.48,50.48,0,0,0,14.3-5.89,35.3,35.3,0,0,0,8.42-7.07Z" transform="translate(-55.72 -49.92)"/><path class="b" d="M196.36,222.82A30.14,30.14,0,0,0,207,211l1.54,2.72a31.92,31.92,0,0,1-10.75,11.36,34.49,34.49,0,0,1-12.57,5l-1.7-2.62A33,33,0,0,0,196.36,222.82Zm-1.89-10.14-2,2a66.41,66.41,0,0,0-8-6.69l1.82-2A70.09,70.09,0,0,1,194.47,212.68Z" transform="translate(-55.72 -49.92)"/><path class="b" d="M222.89,216.46l-1.47,2.24a70,70,0,0,0-7-4.38l1.41-2.18C217.77,213.16,221.48,215.43,222.89,216.46Zm3.71,7.62a32.64,32.64,0,0,0,12.13-11.71l1.54,2.62A37.6,37.6,0,0,1,228,226.44a39.83,39.83,0,0,1-10.62,4l-1.47-2.62A33.92,33.92,0,0,0,226.6,224.07Zm1-14.62-1.5,2.18c-1.54-1.15-5-3.46-6.88-4.54l1.44-2.14C222.57,206,226.25,208.42,227.62,209.45Z" transform="translate(-55.72 -49.92)"/><path class="b" d="M269.48,214.31a23,23,0,0,0,2.5-.13v2.62c-.7,0-1.73-.06-2.5-.06h-8.7a19.36,19.36,0,0,1-1.89,8.74,15.62,15.62,0,0,1-6.3,5.86l-2.37-1.76a13.25,13.25,0,0,0,6-4.9c1.41-2.24,1.76-4.93,1.86-7.94h-9.57c-1,0-1.92,0-2.78.06v-2.62c.86.06,1.79.13,2.78.13Zm-17-5.63c-1.06,0-2.11,0-2.94.1v-2.66a27.91,27.91,0,0,0,2.91.19h11.07a23.62,23.62,0,0,0,3-.19v2.66c-.93-.06-2-.1-3-.1Zm16.57,0a33.82,33.82,0,0,0-2.59-4.42l1.7-.74a45.39,45.39,0,0,1,2.62,4.38Zm2.62-6.43a42.13,42.13,0,0,1,2.69,4.35l-1.73.77A30.51,30.51,0,0,0,270,203Z" transform="translate(-55.72 -49.92)"/><path class="b" d="M292.36,222.82A30.14,30.14,0,0,0,303,211l1.54,2.72a31.92,31.92,0,0,1-10.75,11.36,34.49,34.49,0,0,1-12.57,5l-1.7-2.62A33,33,0,0,0,292.36,222.82Zm-1.89-10.14-2,2a66.41,66.41,0,0,0-8-6.69l1.82-2A70.09,70.09,0,0,1,290.47,212.68Z" transform="translate(-55.72 -49.92)"/><path class="b" d="M333.06,221.29a83.9,83.9,0,0,0-12.57-5.15l0,10.56a37.8,37.8,0,0,0,.19,3.78h-3.07a35.05,35.05,0,0,0,.19-3.78V208.07a20.26,20.26,0,0,0-.26-3.33h3.14c-.1,1-.22,2.37-.22,3.33v5.22a104,104,0,0,1,13.66,5.28Z" transform="translate(-55.72 -49.92)"/><path class="b" d="M168.1,252.36v4.77h7.58v2.21H168.1v5.15c0,1,.19,1.18,1.28,1.18H173c1,0,1.15-.64,1.28-4.06a6.57,6.57,0,0,0,2.14,1c-.22,4.06-.9,5.18-3.23,5.18H169c-2.69,0-3.39-.7-3.39-3.33v-5.12h-5.76c-.51,3.42-2.4,6.69-8.67,8.86a9.3,9.3,0,0,0-1.5-1.89c5.34-1.79,7.17-4.32,7.74-7h-7.1v-2.21h7.36v-4.77h-3.36v-1.22a26.24,26.24,0,0,1-4.77,2.82,12.78,12.78,0,0,0-1.47-1.79,22.14,22.14,0,0,0,6.5-4.16,33.93,33.93,0,0,0-3.84-3.36l1.47-1.25a44.57,44.57,0,0,1,3.87,3.14,22.42,22.42,0,0,0,3-4.22h-7.94V240.2h9.12l.42-.1,1.57.77a22.32,22.32,0,0,1-6.66,9.28h15a27.57,27.57,0,0,1-7.13-10.59l2-.61a23.43,23.43,0,0,0,2,4,37.47,37.47,0,0,0,3.94-3.78l1.79,1.28a49.51,49.51,0,0,1-4.67,4A21.57,21.57,0,0,0,170.7,247a41.76,41.76,0,0,0,4.54-4.13l1.79,1.25a47.45,47.45,0,0,1-5,4.16,20.79,20.79,0,0,0,6,3.71,11,11,0,0,0-1.63,2,20.38,20.38,0,0,1-4.58-2.78v1.22Zm-2.46,0h-5.57v4.77h5.57Z" transform="translate(-55.72 -49.92)"/><path class="b" d="M209.29,264.74V267H180.94v-2.3h13v-8.13h-9.5v-2.3h9.5v-7h-7.52a27.13,27.13,0,0,1-3.36,5.22,13.84,13.84,0,0,0-2.14-1.41c2.62-2.82,4.67-7.23,5.92-11.78l2.4.51A44,44,0,0,1,187.4,245h6.5v-6.14h2.43V245h11.46v2.34H196.33v7H206.6v2.3H196.33v8.13Z" transform="translate(-55.72 -49.92)"/><path class="b" d="M221.8,246.06a36.57,36.57,0,0,1-2.78,4.19v17.89h-2.21V252.84a32.6,32.6,0,0,1-3.62,3.42,17.69,17.69,0,0,0-1.34-2.11,29.84,29.84,0,0,0,7.84-8.83Zm-.7-6.4a34,34,0,0,1-7.55,7.58,13.93,13.93,0,0,0-1.34-1.73,25.57,25.57,0,0,0,6.72-6.66ZM238.76,256a17.67,17.67,0,0,1-5.44,6.88,28.69,28.69,0,0,0,8.74,3.23,9.82,9.82,0,0,0-1.44,2,26.93,26.93,0,0,1-9.18-3.9,31.93,31.93,0,0,1-9.92,4,6.77,6.77,0,0,0-1.22-2,30.78,30.78,0,0,0,9.25-3.36,20,20,0,0,1-3.68-4,28.53,28.53,0,0,1-3.87,2.85,9,9,0,0,0-1.6-1.73,23.69,23.69,0,0,0,8-7c-2.75.1-5.31.16-7.39.22l-.19-2.18,4.93-.06c.7-.61,1.47-1.22,2.21-1.92a40.6,40.6,0,0,0-6.08-4.93l1.44-1.5c.61.38,1.25.8,1.89,1.28a39.58,39.58,0,0,0,4-4.93l2.08,1.09c-1.41,1.7-3.07,3.58-4.51,5a26,26,0,0,1,2.85,2.46,61,61,0,0,0,5.73-6.11l2.11,1.18a108.75,108.75,0,0,1-8.74,8.32l8.58-.19a35,35,0,0,0-2.37-2.85l1.86-1a36.15,36.15,0,0,1,5.28,6.91l-2,1.15a20.38,20.38,0,0,0-1.41-2.34l-7.71.29a19.68,19.68,0,0,1-1.79,2.59h7.68l.38-.13Zm-11.42,1.41a16.23,16.23,0,0,0,4.06,4.19,15.43,15.43,0,0,0,4.16-4.38H227.5Z" transform="translate(-55.72 -49.92)"/><path class="b" d="M258.6,264a19.89,19.89,0,0,0,2.72-.38c4.06-.9,8-3.9,8-9.38a8.78,8.78,0,0,0-8.42-9.18,67.08,67.08,0,0,1-1.89,9.12c-2,6.5-4.48,9.85-7.42,9.85s-5.66-3.26-5.66-8.48c0-6.88,6.14-12.9,13.89-12.9,7.42,0,12.16,5.25,12.16,11.65,0,6.66-4.38,11.1-11.94,12.1Zm-2.08-10.37a51.11,51.11,0,0,0,1.76-8.54c-6.08.77-9.79,6-9.79,10.24,0,4,1.86,5.76,3.23,5.76S254.89,259,256.52,253.67Z" transform="translate(-55.72 -49.92)"/><path class="b" d="M288.94,247.37a45.31,45.31,0,0,1-2.72,10,38.75,38.75,0,0,1,3.55,5.47l-1.92,1.63a37.81,37.81,0,0,0-2.78-4.67,21.85,21.85,0,0,1-7.23,8,10.91,10.91,0,0,0-1.66-1.82,19,19,0,0,0,7.42-8.29,81.05,81.05,0,0,0-5.66-6.82l1.66-1.34c1.66,1.73,3.42,3.74,5,5.73a41.51,41.51,0,0,0,2-8.19Zm2.78-1.06H276.94V244.1H283v-5.22h2.27v5.22h6.43Zm13.89,2.46H301.8v16c0,1.6-.38,2.3-1.34,2.75s-2.56.45-5.31.45a9.85,9.85,0,0,0-.77-2.46c2,.06,3.78.06,4.32,0s.77-.19.77-.77v-16h-8.74V246.5h8.74v-7.68h2.34v7.68h3.81Zm-11,11.39a28,28,0,0,0-3.46-7.17l2-.9a24.9,24.9,0,0,1,3.52,7Z" transform="translate(-55.72 -49.92)"/><path class="b" d="M313.35,245.22v6c0,4.86-.45,12-3.17,16.86a8.85,8.85,0,0,0-2-1.34c2.59-4.58,2.85-11,2.85-15.52V243h11.74v-4.1h2.43V243h12.19v2.27Zm0,18.81c1.6-2.43,2.43-6.34,2.82-9.7l2.18.48c-.45,3.49-1.25,7.65-2.88,10.18Zm15.2,1.22c1.31,0,1.5-.8,1.6-5.47a7.58,7.58,0,0,0,2.14,1c-.26,5.28-.86,6.69-3.58,6.69h-4.67c-2.78,0-3.52-.8-3.52-3.46V251.62h2.34V264c0,1.09.26,1.28,1.47,1.28Zm-.19-12.51a38.14,38.14,0,0,0-7.36-4.93l1.63-1.54a39.07,39.07,0,0,1,7.42,4.7Zm4.9.9A34.49,34.49,0,0,1,338,264l-2.27,1a36.18,36.18,0,0,0-4.51-10.53Z" transform="translate(-55.72 -49.92)"/><path class="f" d="M136.56,611.57a22.35,22.35,0,0,0,2.91-.16v2.69c-.32,0-1.5-.1-2.91-.1H133v1.12c0,8.54-1.82,12.93-9.15,16.19l-2.14-2c5.82-2.24,8.74-5,8.74-14V614h-9.12v5.18c0,1.18.1,2.59.13,2.91h-2.82c0-.32.13-1.7.13-2.91V614h-3.42c-1.41,0-2.85.1-3.23.13v-2.78a23.73,23.73,0,0,0,3.23.22h3.42v-4.1c0-1-.1-2-.13-2.34h2.85a19.69,19.69,0,0,0-.16,2.34v4.1h9.12v-4a17.75,17.75,0,0,0-.16-2.62h2.88a24.17,24.17,0,0,0-.16,2.62v4Z" transform="translate(-55.72 -49.92)"/><path class="f" d="M169.55,606.77a50.14,50.14,0,0,1-8.58,6.94v13.7a24.14,24.14,0,0,0,.19,3.42H158a29.78,29.78,0,0,0,.19-3.42V615.32a64,64,0,0,1-12,5l-1.47-2.5a50.47,50.47,0,0,0,14.3-5.89,35.29,35.29,0,0,0,8.42-7.07Z" transform="translate(-55.72 -49.92)"/><path class="f" d="M184.11,608.37l2.85.58c-.19.7-.45,1.63-.58,2.34a71,71,0,0,1-2.91,10,46.48,46.48,0,0,1-4.7,8.8L176,628.91a42.07,42.07,0,0,0,4.93-8.7A48.91,48.91,0,0,0,184.11,608.37Zm8,.51,2.59-.86a103.57,103.57,0,0,1,4.67,10.11c1.31,3.17,3,8.06,3.84,10.94l-2.85.93a95.89,95.89,0,0,0-3.62-11A81.93,81.93,0,0,0,192.08,608.88Zm9,.42-1.73.77a36.5,36.5,0,0,0-2.59-4.45l1.7-.7A36.87,36.87,0,0,1,201.1,609.3Zm3.58-1.31-1.73.77a30.41,30.41,0,0,0-2.66-4.42l1.7-.7A37.15,37.15,0,0,1,204.69,608Z" transform="translate(-55.72 -49.92)"/><path class="f" d="M209.26,616c1,.06,2.66.16,4.45.16h17.53c1.6,0,2.75-.1,3.46-.16v3.14c-.64,0-2-.16-3.42-.16H213.71c-1.76,0-3.46.06-4.45.16Z" transform="translate(-55.72 -49.92)"/><path class="f" d="M245.1,628.82a3.53,3.53,0,0,0,.32-1.57v-18.3a24.72,24.72,0,0,0-.26-2.91h3.14a20.54,20.54,0,0,0-.22,2.91v18.14c6.11-1.54,13.54-5.76,17.5-10.91l1.44,2.24c-4.16,5.15-10.75,9.09-18.72,11.42a4.58,4.58,0,0,0-1.34.58Z" transform="translate(-55.72 -49.92)"/><path class="f" d="M287.31,623.15A30.13,30.13,0,0,0,298,611.38l1.54,2.72a31.92,31.92,0,0,1-10.75,11.36,34.49,34.49,0,0,1-12.57,5l-1.7-2.62A33,33,0,0,0,287.31,623.15ZM285.42,613l-2,2a66.37,66.37,0,0,0-8-6.69l1.82-2A70.1,70.1,0,0,1,285.42,613Z" transform="translate(-55.72 -49.92)"/><path class="f" d="M313.45,617,312,619.25a70.6,70.6,0,0,0-7-4.38l1.44-2.18C308.3,613.71,312,616,313.45,617Zm3.71,7.65a32.71,32.71,0,0,0,12.13-11.74l1.54,2.66A37.66,37.66,0,0,1,318.51,627a38.23,38.23,0,0,1-10.59,4l-1.47-2.59A34.73,34.73,0,0,0,317.17,624.66Zm1-14.65-1.5,2.21c-1.54-1.18-5-3.49-6.88-4.58l1.44-2.14C313.13,606.55,316.81,609,318.19,610Zm9.7.93-1.82.83a32.21,32.21,0,0,0-2.91-5l1.76-.77A47.21,47.21,0,0,1,327.89,610.93Zm4.29-1.6-1.82.83a37.92,37.92,0,0,0-3-5l1.79-.77A46.1,46.1,0,0,1,332.17,609.33Z" transform="translate(-55.72 -49.92)"/><path class="f" d="M339.47,608.63c2.08-.19,8.06-.77,13.89-1.28,3.46-.29,6.43-.45,8.54-.54v2.56a26.3,26.3,0,0,0-6.21.51c-4.51,1.44-7.23,6.27-7.23,10,0,6.18,5.76,8.13,10.91,8.32l-.93,2.69c-5.85-.26-12.54-3.39-12.54-10.46a12.81,12.81,0,0,1,5.89-10.69c-2.78.32-11.42,1.15-14.85,1.86l-.29-2.82C337.87,608.76,338.86,608.69,339.47,608.63ZM360,617.68l-1.63.77a29.63,29.63,0,0,0-2.62-4.51l1.63-.7A37.94,37.94,0,0,1,360,617.68Zm3.65-1.38-1.66.77a28.49,28.49,0,0,0-2.72-4.45l1.6-.74A48.38,48.38,0,0,1,363.69,616.31Z" transform="translate(-55.72 -49.92)"/><path class="f" d="M396.11,623.22H383.21v6.24c0,1.41-.38,2.11-1.54,2.46a23.81,23.81,0,0,1-5.89.38,10.22,10.22,0,0,0-1-2.27c2.43.06,4.61.06,5.21,0s.83-.19.83-.67v-6.18H368V621h12.8v-2.3h1.22a26.81,26.81,0,0,0,4.51-2.82H373.36v-2.11H389l.48-.13L391,614.8a28.61,28.61,0,0,1-7.78,5.41v.8h12.89Zm-25.18-7.78h-2.27v-7.07h4.89a26.51,26.51,0,0,0-2.69-4l2-.9a21.39,21.39,0,0,1,3.07,4.35l-1.09.54h6.53A18.78,18.78,0,0,0,379,603.7l2-.77a19.74,19.74,0,0,1,2.59,4.9l-1.37.54h5.66a34.47,34.47,0,0,0,3.42-5.09l2.46.83c-1,1.44-2.18,3-3.26,4.26h5v7.07h-2.3v-5h-22.3Z" transform="translate(-55.72 -49.92)"/><path class="f" d="M408.59,613.36c-2.81,1.18-5.7,2.4-8,3.3l-.93-2c2.18-.67,5.41-1.86,8.57-3.1Zm1.76-6.72h-9.92v-2h12.13v10.53c0,1.06-.26,1.6-1,1.92a13.66,13.66,0,0,1-4.13.29,8.75,8.75,0,0,0-.61-1.76c1.41,0,2.69,0,3.07,0s.48-.13.48-.48Zm-7.33.29a17.64,17.64,0,0,1,4.19,3l-1.28,1.54a16.45,16.45,0,0,0-4.16-3.14Zm12.19,9.7c-.45.86-.93,1.76-1.38,2.53h10.43v13.21h-2.4v-1.25H406.35v1.25H404V619.16h7.49a27.33,27.33,0,0,0,1.25-3Zm6.65,4.38H406.35v3.1h15.52Zm0,8.22V626H406.35v3.23Zm-8-15.13c2.3-.74,5.66-1.92,9-3.1l.35,1.76c-2.94,1.12-6,2.27-8.48,3.17Zm13,1.12c0,1.12-.26,1.66-1.09,2a14.63,14.63,0,0,1-4.32.32,7.1,7.1,0,0,0-.67-1.89c1.5.06,2.88.06,3.33,0s.51-.13.51-.48v-8.58h-10v-2H426.8Zm-7.13-3.81a15.27,15.27,0,0,0-4.22-3l1.25-1.44a17.66,17.66,0,0,1,4.29,2.91Z" transform="translate(-55.72 -49.92)"/><path class="f" d="M435.47,608.63c2.08-.19,8.06-.77,13.89-1.28,3.46-.29,6.43-.45,8.54-.54v2.56a26.3,26.3,0,0,0-6.21.51c-4.51,1.44-7.23,6.27-7.23,10,0,6.18,5.76,8.13,10.91,8.32l-.93,2.69c-5.86-.26-12.54-3.39-12.54-10.46a12.81,12.81,0,0,1,5.89-10.69c-2.79.32-11.42,1.15-14.85,1.86l-.29-2.82C433.87,608.76,434.86,608.69,435.47,608.63ZM456,617.68l-1.63.77a29.63,29.63,0,0,0-2.62-4.51l1.63-.7A37.94,37.94,0,0,1,456,617.68Zm3.65-1.38-1.66.77a28.49,28.49,0,0,0-2.72-4.45l1.6-.74A48.38,48.38,0,0,1,459.69,616.31Z" transform="translate(-55.72 -49.92)"/><path class="f" d="M489.42,614.9a42.35,42.35,0,0,1-5.37,1.34c.93,2,2,4.16,2.85,5.82l-1.25,1.57c-1.6-.29-4.16-.64-6.18-.9l.22-2c1.54.19,3,.35,4,.45-.61-1.25-1.34-2.91-2.08-4.58a76.24,76.24,0,0,1-14.18.29l-.1-2.34a63.2,63.2,0,0,0,13.31-.06L479.57,612c-.26-.54-.48-1.12-.71-1.63a65,65,0,0,1-11.13-.06l-.16-2.34a57.65,57.65,0,0,0,10.37.26c-.16-.35-.29-.67-.42-1a22.5,22.5,0,0,0-1.18-2.24l2.88-.61a32.24,32.24,0,0,0,1.18,3.52,35.64,35.64,0,0,0,6.3-1.5l.45,2.27a43.79,43.79,0,0,1-5.89,1.34l.58,1.31c.26.67.71,1.66,1.25,2.85a33.06,33.06,0,0,0,5.86-1.57Zm-18.21,6.59a10.82,10.82,0,0,0-.74,3.23c0,2.43,1.92,4,6.43,4a38.08,38.08,0,0,0,7.81-.74l-.06,2.59a49,49,0,0,1-7.65.61c-5.66,0-9-2-9-5.92a14.26,14.26,0,0,1,.74-4Z" transform="translate(-55.72 -49.92)"/><path class="f" d="M518,607.64c-.57.38-1.28.86-1.76,1.22-1.57,1.18-5.82,4.93-8.25,7a13.44,13.44,0,0,1,4.29-.67c5.28,0,9.09,3.2,9.09,7.49,0,5.12-4.26,8.45-10.94,8.45-4.32,0-7-1.92-7-4.54,0-2.18,2-4.16,4.9-4.16a6.26,6.26,0,0,1,6.53,5.6,5.53,5.53,0,0,0,3.94-5.38c0-3.1-3.13-5.37-7.13-5.37-5.22,0-8.1,2.21-12.13,6.3l-1.86-1.89,8.54-7.1c1.76-1.47,5.7-4.8,7.26-6.21-1.66.06-7.9.35-9.54.45a15.3,15.3,0,0,0-2.14.19l-.06-2.66a18,18,0,0,0,2.24.1c1.63,0,9.15-.22,10.81-.38a11.32,11.32,0,0,0,1.73-.26Zm-5.47,21c-.29-2.5-1.79-4.22-4.19-4.22-1.44,0-2.53.86-2.53,2,0,1.57,1.82,2.46,4.19,2.46A15.62,15.62,0,0,0,512.49,628.59Z" transform="translate(-55.72 -49.92)"/><path class="f" d="M532,607.54a21.8,21.8,0,0,1-2.75,3.39,10.94,10.94,0,0,0-2-1.31,17.8,17.8,0,0,0,4.67-6.69l2.21.58q-.43,1-1,2h8.41v1.92a15.48,15.48,0,0,0,2.82-4.51l2.27.54c-.29.7-.64,1.38-1,2H556.4v2h-7a15.55,15.55,0,0,1,1.7,2.62l-2.11.7a18.4,18.4,0,0,0-2.14-3.33h-2.53a18.07,18.07,0,0,1-2.88,3.1,17.87,17.87,0,0,0-2-1.18,14.7,14.7,0,0,0,2.11-1.92H535.7a14.34,14.34,0,0,1,1.12,2.4l-2.08.58a19.38,19.38,0,0,0-1.37-3Zm4.19,19.2h6.5v1.86h-6.5v3.68h-2v-3.68h-6.53v-1.86h6.53v-1.92h-5.28v-8.93h5.28v-1.82h-6v-1.82h6v-1.63h2v1.63h6.08v1.82h-6.08v1.82h5.34v8.93h-5.34Zm-5.37-7.2h3.33v-2.08h-3.33Zm3.33,3.68v-2.14h-3.33v2.14Zm2-5.76v2.08h3.33v-2.08Zm3.33,3.62h-3.33v2.14h3.33Zm13.5,8.7c1.35,0,1.57-.74,1.73-4.22a6.2,6.2,0,0,0,2.11.9c-.32,4.26-1,5.47-3.68,5.47h-5.7c-3,0-3.87-.7-3.87-3.65V611.86h11.58v9.47c0,1.22-.26,1.86-1.15,2.27a13.22,13.22,0,0,1-4.51.42,9.92,9.92,0,0,0-.8-2.24c1.73.06,3.17.06,3.62,0s.58-.13.58-.51v-7.36h-7v14.33c0,1.25.22,1.5,1.76,1.5Z" transform="translate(-55.72 -49.92)"/><path class="f" d="M587.28,604.56v27.77h-2.43v-1.5h-21.7v1.5h-2.37V604.56Zm-2.43,24.09V606.8h-21.7v21.85Zm-1.63-8.13h-4.35v6.59h-2.11v-6.59h-5.44a9.69,9.69,0,0,1-4.58,7,9.71,9.71,0,0,0-1.5-1.54,8.33,8.33,0,0,0,3.9-5.47h-4.19v-2h4.51c0-.67.06-1.34.06-2v-2.24h-4.22v-2h4.22v-4h2.08v4h5.15v-4h2.11v4h4.26v2h-4.26v4.29h4.35Zm-6.46-2v-4.29H571.6v2.27c0,.67,0,1.34-.06,2Z" transform="translate(-55.72 -49.92)"/><rect class="g" x="5" y="293.92" width="578.56" height="304.33" rx="20.33" ry="20.33"/><path d="M122.32,53.92a.73.73,0,0,1-.61.26,1.19,1.19,0,0,1-.32,0,77.77,77.77,0,0,1-9.12,7.65c.26.1.64.29.77.35a.82.82,0,0,1-.7.42V79.75H110V63.3a92.16,92.16,0,0,1-12.19,7.14,11.66,11.66,0,0,0-1.34-1.76c8.74-4,18.3-10.88,23.45-16.54Z" transform="translate(-55.72 -49.92)"/><path d="M131,54.47a39.78,39.78,0,0,1,9.54,4.35l-1.22,2a40.87,40.87,0,0,0-9.34-4.45Zm-.13,22.17c11.36-3.52,18.91-9.89,22.75-18.75a12.44,12.44,0,0,0,2.08,1.31c-4,8.77-11.81,15.58-22.65,19.2a1,1,0,0,1-.45.74Z" transform="translate(-55.72 -49.92)"/><path d="M161.74,61.06a46,46,0,0,1,8.61,2.88l-1,2A46.69,46.69,0,0,0,160.78,63Zm1.92,15.65c10.4-3.49,17.5-9,21.76-18.62.48.42,1.47,1.09,2,1.41-4.29,9.5-11.74,15.42-21.53,18.91a.75.75,0,0,1-.38.8Zm1.6-23.58a51.27,51.27,0,0,1,8.58,3.14l-1.06,2A50.35,50.35,0,0,0,164.3,55Z" transform="translate(-55.72 -49.92)"/><path d="M218.77,64.45H208.21l.54.16c0,.19-.29.35-.64.38-.83,5.79-3.46,11.55-9.89,14.78a14.07,14.07,0,0,0-1.73-1.57c6.3-3.14,8.51-8,9.25-13.76H193.52V62.31h25.25Zm-4.7-8.74H196.3V53.57h17.76Zm.42-4.7A23.26,23.26,0,0,1,218,56.07l-1.28.86a21.37,21.37,0,0,0-3.49-5.06Zm3.78-1.09a25.74,25.74,0,0,1,3.62,5l-1.31.8a23.7,23.7,0,0,0-3.52-5Z" transform="translate(-55.72 -49.92)"/><path d="M227,54.47a39.78,39.78,0,0,1,9.54,4.35l-1.22,2a40.87,40.87,0,0,0-9.34-4.45Zm-.13,22.17c11.36-3.52,18.91-9.89,22.75-18.75a12.44,12.44,0,0,0,2.08,1.31c-4,8.77-11.81,15.58-22.65,19.2a1,1,0,0,1-.45.74Z" transform="translate(-55.72 -49.92)"/><path d="M279,68.9a115.48,115.48,0,0,0-11.23-5.22v16h-2.4V51.88l3.23.19c0,.35-.29.58-.83.67v9.34l.48-.67a111.2,111.2,0,0,1,12,5.34Z" transform="translate(-55.72 -49.92)"/><path d="M295.7,76.1c8.13-2.27,14.59-6.18,18.53-13.15a11.3,11.3,0,0,0,1.7,1.6c-4.32,7.36-11.46,11.65-21.09,14.17a.94.94,0,0,1-.51.64L293,77.12l.38-.61V52.93l3.3.16c0,.35-.32.64-1,.7Z" transform="translate(-55.72 -49.92)"/><path d="M342.64,55.17a.66.66,0,0,1-.42.35,49.51,49.51,0,0,1-6.4,11,117.48,117.48,0,0,1,11.71,10.85l-2,1.7a104.46,104.46,0,0,0-11.23-10.75A50.38,50.38,0,0,1,322,79.07a12,12,0,0,0-1.66-1.73c8.86-4.86,15.87-14,18.75-20.89H323.41V54.28h17l.42-.16Z" transform="translate(-55.72 -49.92)"/><path d="M360.3,66.05a26.59,26.59,0,0,1-6,9.44l-1.86-1.22a22.44,22.44,0,0,0,5.79-9Zm6.85-4.93v15c0,3.49-2.5,3.49-7.62,3.49a13.68,13.68,0,0,0-.67-2.14c.93,0,2,0,2.82,0h1.86a1.22,1.22,0,0,0,1.31-1.34v-15H354V58.95h10.88V52.2l3,.16c0,.32-.26.54-.74.61v6H378v2.18Zm5.73,3.9a63.21,63.21,0,0,1,6.75,9.31l-2,1.18a59.13,59.13,0,0,0-6.53-9.47ZM377,50.28a3.58,3.58,0,1,1-3.62,3.58A3.57,3.57,0,0,1,377,50.28Zm2.5,3.58A2.53,2.53,0,0,0,377,51.3a2.54,2.54,0,1,0,0,5.09A2.53,2.53,0,0,0,379.53,53.86Z" transform="translate(-55.72 -49.92)"/><path d="M387,54.47a39.79,39.79,0,0,1,9.54,4.35l-1.22,2a40.89,40.89,0,0,0-9.34-4.45Zm-.13,22.17c11.36-3.52,18.91-9.89,22.75-18.75a12.44,12.44,0,0,0,2.08,1.31c-4,8.77-11.81,15.58-22.65,19.2a1,1,0,0,1-.45.74Z" transform="translate(-55.72 -49.92)"/><path d="M438.64,55.17a.66.66,0,0,1-.42.35,49.52,49.52,0,0,1-6.4,11,117.54,117.54,0,0,1,11.71,10.85l-2,1.7a104.46,104.46,0,0,0-11.23-10.75A50.38,50.38,0,0,1,418,79.07a12,12,0,0,0-1.66-1.73c8.86-4.86,15.87-14,18.75-20.89H419.41V54.28h17l.42-.16Z" transform="translate(-55.72 -49.92)"/><path d="M463.85,56.8a.83.83,0,0,1-.8.51c-1.15,10-4.48,18.62-9.79,18.62-2.69,0-5.12-2.69-5.12-7.74a14,14,0,0,1,14.4-14.11c9.25,0,13.25,5.86,13.25,12.1,0,7.62-4.42,11.29-12.16,13.09a12.64,12.64,0,0,0-1.34-2c7.36-1.41,11.13-5,11.13-11,0-5.28-3.39-10.08-10.88-10.08a9.13,9.13,0,0,0-1,.06Zm-3.07-.42a11.78,11.78,0,0,0-10.46,11.74c0,3.42,1.47,5.57,3,5.57C457.2,73.7,460,65.16,460.78,56.39Z" transform="translate(-55.72 -49.92)"/><path d="M507.89,61.48H501.2v2.21c0,6.11-1.89,12.32-10.24,16.09a11.33,11.33,0,0,0-1.66-1.6c8.13-3.52,9.63-9.22,9.63-14.46V61.48H488.59v8h-2.27v-8H480V59.3h6.27V52.36l3.07.19a.83.83,0,0,1-.8.67V59.3h10.34V51.94l3.07.19c0,.29-.29.54-.8.61V59.3h6.69Z" transform="translate(-55.72 -49.92)"/><path d="M538.32,53.92a.73.73,0,0,1-.61.26,1.2,1.2,0,0,1-.32,0,77.81,77.81,0,0,1-9.12,7.65c.26.1.64.29.77.35a.82.82,0,0,1-.7.42V79.75H526V63.3a92.12,92.12,0,0,1-12.19,7.14,11.66,11.66,0,0,0-1.34-1.76c8.74-4,18.3-10.88,23.45-16.54Z" transform="translate(-55.72 -49.92)"/><path d="M569.17,58a2.16,2.16,0,0,1-.48.45c-3.36,10.37-8.61,17-17.44,21.5a8.31,8.31,0,0,0-1.63-1.76A30.06,30.06,0,0,0,565.84,59.2H554.42a32.78,32.78,0,0,1-7.17,7.9,12.64,12.64,0,0,0-1.82-1.47,32.52,32.52,0,0,0,10.21-13.89l3,.86c-.13.32-.51.42-.93.42-.64,1.41-1.31,2.75-2,4H567l.38-.19Z" transform="translate(-55.72 -49.92)"/><path d="M583.79,56.9c0,.29-.32.48-.74.54-.19,8.61-.9,16.45-5.82,22.17a18,18,0,0,0-1.92-1.22c4.77-5.18,5.34-13.18,5.44-21.79Zm8.29,18.43c5.34-2.59,8.8-7.26,10.66-12.86a12.86,12.86,0,0,0,2,1.25,23.87,23.87,0,0,1-13.05,14.46,1.34,1.34,0,0,1-.54.64l-1.66-2.11.35-.48V52.74l3,.16a.73.73,0,0,1-.7.61Z" transform="translate(-55.72 -49.92)"/></svg>