<svg id="レイヤー_1" data-name="レイヤー 1" xmlns="http://www.w3.org/2000/svg" viewBox="0 0 700 700"><defs><style>.cls-1{fill:#2196f3;}.cls-2,.cls-6,.cls-8{font-size:32px;}.cls-2{fill:#fff;}.cls-2,.cls-6{font-family:NotoSansCJKJPRegularttf-90ms-RKSJ-H, NotoSansCJKJPRegularttf;}.cls-3{fill:#f44336;}.cls-4{fill:#009688;}.cls-5{fill:#ff9800;}.cls-6{fill:#0072ce;}.cls-7{fill:none;stroke:#0072ce;stroke-miterlimit:10;stroke-width:10px;stroke-dasharray:15.86 15.86;}.cls-8{font-family:KozGoPr6N-Regular-90ms-RKSJ-H, Kozuka Gothic Pr6N;}</style></defs><title>アートボード 1</title><path class="cls-1" d="M350,96V343.84h86.38l37.76,25.8,37.76-25.8h86.38C598.28,206.84,487,96,350,96Zm0,161.89V182.43l25.8,37.76Z"/><text class="cls-2" transform="translate(419.72 245.27)">準備</text><path class="cls-3" d="M511.89,343.84l-37.76,25.8-37.76-25.8H350v86.87l-25.8,37.76L350,506.22V592.6c137,0,248.28-110.76,248.28-248.76Z"/><text class="cls-2" transform="translate(379.72 464.89)">検知と分析</text><path class="cls-4" d="M350,343.84H263.62L225.86,318l-37.76,25.8H101.72C101.72,481.84,213,592.6,350,592.6V506.22l-25.8-37.76L350,430.71Z"/><text class="cls-2" transform="translate(181.05 436.27)">封じ込め</text><text class="cls-2" transform="translate(169.05 489.61)">根絶</text><text class="cls-2" transform="translate(252.38 489.61)">復旧</text><path class="cls-5" d="M350,182.43V96C213,96,101.72,206.84,101.72,343.84h86.38L225.86,318l37.76,25.8H350v-85.9l25.8-37.76Z"/><text class="cls-2" transform="translate(147.05 229.51)">インシデント</text><text class="cls-2" transform="translate(147.05 265.61)">発生後の対応</text><text class="cls-6" transform="translate(110 626.51)">サイバーレンジで学習できる範囲</text><rect class="cls-7" x="60.72" y="343.84" width="578.56" height="295.33" rx="20.33" ry="20.33"/><text class="cls-8" transform="translate(94 77.99)">インシデントレスポンスのサイクル</text></svg>