<?xml version="1.0" encoding="utf-8"?>
<!-- Generator: Adobe Illustrator 16.0.3, SVG Export Plug-In . SVG Version: 6.00 Build 0)  -->
<!DOCTYPE svg PUBLIC "-//W3C//DTD SVG 1.1//EN" "http://www.w3.org/Graphics/SVG/1.1/DTD/svg11.dtd">
<svg version="1.1" id="image" xmlns="http://www.w3.org/2000/svg" xmlns:xlink="http://www.w3.org/1999/xlink" x="0px" y="0px"
	 width="387.387px" height="80.577px" viewBox="0 0 387.387 80.577" enable-background="new 0 0 387.387 80.577"
	 xml:space="preserve">
<g>
	<g>
		<g>
			<path fill="#176CB6" d="M129.526,31.946c0,2.93-0.591,5.262-1.776,7.023c-1.184,1.738-2.959,3.238-5.353,4.533l6.348,12.018
				c1.34,2.711,3.247,3.896,5.696,3.58l0.271,2.17c-1.436,0.443-3.118,0.67-5.046,0.652c-3.398,0-6.086-1.738-8.027-5.236
				l-5.512-10.309c-0.397-0.75-1.05-1.236-1.928-1.439c-0.878-0.225-2.187-0.324-3.906-0.324v12.207
				c0,0.934,0.256,1.635,0.773,2.049c0.516,0.443,1.379,0.637,2.59,0.637h0.868c0.316,0,0.487,0.199,0.487,0.57v1.412l-0.107,0.135
				c-3.049-0.1-5.354-0.135-6.944-0.135l-9.793,0.135l-0.11-0.135v-1.412c0-0.354,0.17-0.541,0.49-0.57h0.866
				c2.261,0,3.391-0.895,3.391-2.686V27.198c0-0.932-0.138-1.643-0.388-2.076c-0.23-0.461-0.733-0.689-1.483-0.689h-0.407
				l-1.845,0.186c-0.315,0-0.481-0.148-0.514-0.43v-2.076c0.713-0.176,2.812-0.32,6.347-0.498c3.51-0.148,7.009-0.248,10.444-0.248
				c4.082,0,7.551,0.902,10.347,2.658C128.121,25.778,129.526,28.409,129.526,31.946z M122.039,32.813
				c0-2.877-0.629-5.078-1.913-6.58c-1.256-1.525-2.888-2.268-4.869-2.268c-1.754,0-3.41,0.131-4.964,0.41v17.418h3.011
				c3.011,0,5.195-0.738,6.606-2.184C121.321,38.161,122.039,35.896,122.039,32.813z"/>
			<path fill="#176CB6" d="M151.394,58.802c-2.799,2.262-5.404,3.383-7.844,3.365c-2.662,0-4.587-0.521-5.743-1.564
				c-1.168-1.016-1.769-2.607-1.769-4.746c0-2.305,0.95-4.08,2.794-5.316c1.873-1.262,4.616-2.412,8.202-3.477l4.44-1.283
				c0-3.623-0.354-6.053-1.085-7.268c-0.706-1.213-1.789-1.826-3.229-1.826c-1.235,0-2.252,0.178-3.094,0.563
				c-0.841,0.377-1.271,0.896-1.271,1.543c0,0.465,0.08,0.949,0.188,1.494c0.111,0.549,0.189,0.939,0.189,1.117
				c0,0.502-0.343,1.02-0.99,1.549c-0.641,0.529-1.389,0.793-2.209,0.793c-1.901,0-2.885-0.885-2.903-2.604
				c0-1.754,1.214-3.34,3.662-4.734c2.449-1.412,4.866-2.129,7.299-2.129c3.041,0,5.481,0.777,7.375,2.313
				c1.89,1.561,2.825,4.365,2.825,8.416v8.969c0,0.9,0.018,1.578,0.055,2.057c0.033,0.484,0.143,0.977,0.27,1.529
				c0.152,0.555,0.396,0.971,0.746,1.227c0.344,0.254,0.815,0.367,1.383,0.367c0.568,0,1.006-0.203,1.329-0.584
				c0.353-0.379,0.521-0.584,0.558-0.584c0.134,0,0.285,0.143,0.502,0.475c0.217,0.309,0.313,0.568,0.313,0.746
				c0,0.174-0.231,0.477-0.666,0.938c-0.459,0.436-1.149,0.895-2.115,1.33c-0.942,0.459-1.922,0.691-2.955,0.691
				c-1.844,0-3.209-0.271-4.162-0.816c-0.929-0.543-1.571-1.393-1.956-2.549H151.394z M151.475,56.487v-8.395l-3.498,1.059
				c-2,0.623-3.365,1.396-4.098,2.287c-0.707,0.891-1.084,2.049-1.084,3.475c0,2.719,1.3,4.078,3.878,4.078
				C147.83,58.991,149.438,58.132,151.475,56.487z"/>
			<path fill="#176CB6" d="M176.136,38.159c3.361-2.578,6.454-3.881,9.277-3.881c3.044,0,5.055,0.842,6.041,2.521
				c0.975,1.684,1.472,4.143,1.472,7.354v12.723c0,0.787,0.224,1.344,0.666,1.668c0.46,0.326,1.215,0.631,2.318,0.91l0.516,0.135
				c0.317,0.074,0.487,0.258,0.487,0.568v1.412l-0.132,0.109c-3.27-0.074-5.718-0.109-7.3-0.109l-6.892,0.109l-0.108-0.109v-1.412
				c0-0.277,0.146-0.477,0.461-0.568l0.272-0.082c1.066-0.279,1.83-0.582,2.269-0.906c0.456-0.326,0.688-0.9,0.688-1.725V43.745
				c0-2.225-0.176-3.799-0.502-4.693c-0.325-0.893-1.034-1.354-2.075-1.354c-1.891,0-4.376,0.984-7.458,2.9v16.277
				c0,0.787,0.239,1.363,0.716,1.725c0.473,0.371,1.208,0.662,2.237,0.906l0.246,0.082c0.315,0.074,0.469,0.258,0.489,0.568v1.412
				l-0.111,0.109c-3.118-0.074-5.471-0.109-7.079-0.109l-7.106,0.109l-0.135-0.109v-1.412c0-0.277,0.172-0.477,0.487-0.568
				l0.542-0.135c1.104-0.246,1.877-0.529,2.306-0.854c0.452-0.326,0.651-0.9,0.651-1.725V41.847c0-1.439-0.094-2.4-0.313-2.834
				c-0.189-0.463-0.555-0.709-1.016-0.746l-2.523-0.244l-0.135-2.416c5.007-0.543,8.444-1.049,10.335-1.518
				c0.28,0,0.408,0.08,0.408,0.189l-0.112,3.881H176.136z"/>
			<path fill="#176CB6" d="M225.743,38.052c-1.144,0-1.904-0.613-2.258-1.83c-0.251-0.52-0.563-0.766-0.947-0.75
				c-0.645,0-1.239,0.389-1.81,1.113c2.264,1.814,3.387,4.227,3.371,7.285c0,2.854-1.094,5.125-3.251,6.811
				c-2.173,1.689-4.778,2.533-7.835,2.533c-2.133,0-3.84-0.301-5.125-0.898c-0.271,0.635-0.429,1.652-0.448,3.01
				c0,1.098,0.294,1.916,0.875,2.443c0.584,0.525,1.234,0.789,1.913,0.789c0.036,0,0.784-0.068,2.219-0.23
				c1.434-0.135,2.613-0.23,3.551-0.23c4.451,0,7.667,0.75,9.641,2.227c1.938,1.498,2.937,3.027,2.937,4.637
				c0,2.162-0.904,4.121-2.737,5.848c-1.805,1.752-4.061,3.061-6.764,3.984c-2.679,0.93-5.482,1.373-8.388,1.373
				c-2.931,0-5.388-0.605-7.446-1.818c-2.033-1.213-3.055-3.102-3.055-5.643c0-2.539,1.657-4.953,4.984-7.215
				c-2.026-1.178-3.059-2.664-3.066-4.494c-0.012-1.803,1.097-3.705,3.318-5.688c-1.157-0.76-2.089-1.865-2.817-3.285
				c-0.717-1.422-1.077-2.914-1.077-4.424c0-2.748,1.137-4.986,3.409-6.719c2.275-1.736,4.991-2.602,8.131-2.602
				c2.473,0,4.401,0.371,5.786,1.141c0.864-0.77,1.904-1.377,3.15-1.82c1.216-0.469,2.275-0.705,3.145-0.705
				c1.061,0,1.853,0.277,2.429,0.83c0.575,0.551,0.889,1.17,0.889,1.883c0,0.725-0.241,1.328-0.727,1.779
				C227.252,37.847,226.596,38.052,225.743,38.052z M209.443,62.491c-0.942,0-1.647-0.072-2.058-0.244
				c-0.927,0.934-1.403,2.67-1.403,5.236c0,1.9,0.768,3.42,2.275,4.504c1.506,1.057,2.886,1.602,4.135,1.602
				c2.594,0,4.991-0.637,7.222-1.939c2.229-1.275,3.344-2.982,3.344-5.115c0-2.82-3.024-4.23-9.049-4.23
				c-0.208,0-0.831,0.035-1.894,0.135C211.4,62.472,210.544,62.491,209.443,62.491z M217.344,44.085c0-2.398-0.424-4.264-1.3-5.639
				c-0.901-1.377-2.072-2.053-3.544-2.053c-1.243,0-2.271,0.566-3.057,1.699c-0.758,1.133-1.163,2.77-1.163,4.959
				c0,1.967,0.425,3.771,1.219,5.438c0.82,1.666,2.101,2.502,3.815,2.502C215.998,50.972,217.344,48.671,217.344,44.085z"/>
			<path fill="#176CB6" d="M253.365,54.868l1.542,1.303c-1.979,4.014-5.619,6.014-10.898,5.996c-4.426,0-7.733-1.227-9.887-3.623
				c-2.181-2.424-3.269-5.455-3.269-9.156c0-4.467,1.359-8.102,4.051-10.904c2.721-2.805,5.813-4.205,9.28-4.205
				c4.151,0,7.06,1.057,8.758,3.141c1.696,2.113,2.543,4.711,2.543,7.822c0,0.838-0.807,1.244-2.397,1.244h-15.021v1.602
				c0,3.049,0.777,5.584,2.383,7.609s3.59,3.053,5.953,3.053C248.897,58.749,251.209,57.446,253.365,54.868z M238.357,44.097h9.804
				c0.101-0.098,0.134-0.297,0.134-0.682c0-2.24-0.449-3.871-1.324-4.945c-0.873-1.076-1.82-1.613-2.84-1.613
				c-0.388,0-0.848,0.109-1.353,0.271c-0.507,0.193-1.06,0.508-1.665,0.969c-0.604,0.439-1.169,1.191-1.691,2.203
				C238.898,41.339,238.548,42.614,238.357,44.097z"/>
			<path fill="#176CB6" d="M263.164,56.925V37.698h-2.824c-1.102,0-1.66-0.184-1.681-0.588v-0.852c0-0.311,0.223-0.617,0.664-0.918
				c0.417-0.303,1.118-0.465,2.05-0.465h1.791v-0.598c0-4.838,1.133-8.668,3.404-11.434c2.269-2.795,4.978-4.191,8.098-4.191
				c1.51,0,2.867,0.166,4.043,0.555c1.202,0.363,2.089,0.826,2.685,1.369c0.595,0.516,1.052,1.02,1.358,1.48
				c0.296,0.434,0.432,0.836,0.432,1.15c0,0.824-0.258,1.525-0.772,2.133c-0.49,0.631-1.188,0.936-2.048,0.936
				c-1.547,0-2.813-0.818-3.744-2.455c-0.896-1.727-1.946-2.592-3.12-2.592c-2.395,0-3.582,3.498-3.582,10.52v3.127h5.916
				c0.822,0,1.247,0.213,1.247,0.611v1.225c0,0.674-0.733,1.002-2.17,0.986h-4.993v19.063c0,1.551,1.112,2.447,3.339,2.693
				l1.084,0.135c0.317,0.074,0.496,0.258,0.516,0.568v1.412l-0.137,0.109c-3.943-0.074-6.691-0.109-8.299-0.109l-7.436,0.109
				l-0.135-0.109v-1.412c0-0.277,0.18-0.477,0.517-0.568l0.841-0.135c1.066-0.146,1.808-0.404,2.277-0.773
				C262.956,58.333,263.164,57.747,263.164,56.925z"/>
			<path fill="#176CB6" d="M279.819,48.899c0-4.373,1.243-7.887,3.681-10.592c2.461-2.678,5.859-4.029,10.196-4.029
				c2.403,0,4.521,0.436,6.409,1.268c1.885,0.855,3.34,1.977,4.389,3.348c1.027,1.4,1.813,2.92,2.33,4.508
				c0.517,1.615,0.772,3.268,0.772,4.957c0,1.604-0.29,3.176-0.862,4.77c-0.592,1.568-1.398,3.063-2.495,4.404
				c-1.099,1.369-2.555,2.48-4.395,3.338c-1.814,0.854-3.899,1.297-6.203,1.297c-4.263,0-7.635-1.361-10.115-4.08
				C281.071,55.394,279.819,52.323,279.819,48.899z M293.1,36.856c-1.82,0-3.244,1.07-4.263,3.188
				c-0.994,2.143-1.502,4.643-1.502,7.502c0,1.682,0.251,3.398,0.74,5.152c0.494,1.781,1.327,3.352,2.482,4.762
				s2.517,2.129,4.085,2.129c1.437,0,2.691-0.691,3.791-2.047c1.101-1.332,1.652-3.76,1.652-7.23c0-4.297-0.629-7.619-1.909-9.945
				C296.921,38.017,295.229,36.856,293.1,36.856z"/>
			<path fill="#176CB6" d="M322.329,38.159c2.501-2.578,5.12-3.881,7.868-3.881c1.041,0,1.899,0.348,2.578,1.07
				c0.649,0.699,0.978,1.488,0.978,2.35c0,0.992-0.285,1.824-0.855,2.494c-0.569,0.67-1.325,1.031-2.237,1.031
				c-0.542,0-1.039-0.143-1.534-0.393c-0.497-0.256-0.881-0.535-1.181-0.84c-0.323-0.311-0.632-0.594-0.949-0.857
				c-0.317-0.26-0.597-0.381-0.841-0.381c-0.725,0-1.483,0.273-2.25,0.814c-1.044,0.725-1.576,2.152-1.576,4.285v12.969
				c0,0.541,0.113,0.973,0.368,1.334c0.252,0.354,0.563,0.619,0.938,0.783c0.396,0.189,0.938,0.369,1.624,0.516l0.517,0.135
				c0.316,0.074,0.488,0.258,0.488,0.568v1.412l-0.135,0.109c-3.268-0.074-5.716-0.109-7.324-0.109l-7.108,0.109l-0.11-0.109v-1.412
				c0-0.342,0.128-0.514,0.408-0.568l0.598-0.135c1.03-0.209,1.788-0.502,2.252-0.883c0.488-0.379,0.731-0.963,0.731-1.75V41.847
				c0-1.439-0.11-2.4-0.312-2.834c-0.217-0.463-0.556-0.709-1.044-0.746l-2.523-0.244l-0.11-2.092
				c4.984-0.65,8.447-1.281,10.31-1.842c0.281,0,0.434,0.08,0.434,0.189l-0.134,3.881H322.329z"/>
			<path fill="#176CB6" d="M359.218,56.321c-1.989,3.916-5.236,5.863-9.767,5.846c-4.345,0-7.615-1.129-9.862-3.389
				c-2.245-2.26-3.366-5.426-3.366-9.52c0-4.313,1.316-7.898,3.929-10.729c2.608-2.836,5.779-4.252,9.51-4.252
				c3.23,0,5.69,0.611,7.378,1.857c1.689,1.221,2.538,2.727,2.538,4.543c0,0.971-0.313,1.789-0.886,2.43
				c-0.575,0.67-1.329,0.988-2.31,0.988c-0.992,0-1.821-0.266-2.461-0.799c-0.667-0.533-1.022-1.215-1.097-2.074
				c-0.279-2.92-1.409-4.367-3.382-4.367c-1.677,0-3.099,0.99-4.263,2.941c-1.188,1.928-1.771,4.59-1.771,7.934
				c0,3.244,0.759,5.977,2.247,8.141c1.514,2.188,3.289,3.283,5.354,3.283c2.228,0,4.548-1.344,6.985-4.008L359.218,56.321z"/>
			<path fill="#176CB6" d="M385.237,54.868l1.571,1.303c-1.981,4.014-5.62,6.014-10.92,5.996c-4.407,0-7.712-1.227-9.895-3.623
				c-2.151-2.424-3.24-5.455-3.24-9.156c0-4.467,1.356-8.102,4.051-10.904c2.718-2.805,5.812-4.205,9.28-4.205
				c4.149,0,7.059,1.057,8.757,3.141c1.695,2.113,2.545,4.711,2.545,7.822c0,0.838-0.81,1.244-2.414,1.244H369.94v1.602
				c0,3.049,0.805,5.584,2.411,7.609c1.578,2.025,3.566,3.053,5.952,3.053C380.796,58.749,383.107,57.446,385.237,54.868z
				 M370.241,44.097h9.821c0.071-0.098,0.107-0.297,0.107-0.682c0-2.24-0.424-3.871-1.299-4.945
				c-0.875-1.076-1.84-1.613-2.841-1.613c-0.415,0-0.849,0.109-1.354,0.271c-0.505,0.193-1.059,0.508-1.665,0.969
				c-0.605,0.439-1.166,1.191-1.69,2.203C370.799,41.339,370.446,42.614,370.241,44.097z"/>
		</g>
	</g>
</g>
<g>
	<path fill="#176CB6" d="M7.828,12.508c-0.408,6.203-0.286,12.47,0.423,18.565c11.491-6.125,23.964-9.556,34.028-10.757V0
		C27.193,0,23.487,12.508,7.828,12.508z"/>
	<path d="M76.73,12.508C61.071,12.508,57.365,0,42.279,0v20.316c21.173-2.529,31.676,4.812,0,17.604v0.163
		c3.072,0.366,27.815,3.812,33.617,20.703l0.021,0.009c0,0-0.024-7.724-2.384-13.787C76.529,34.808,77.453,23.568,76.73,12.508z"/>
	<path d="M42.279,24.909v8.68C48.132,29.321,47.376,26.071,42.279,24.909z"/>
	<path fill="#176CB6" d="M30.882,39.596c5.144-2.134,8.876-4.17,11.397-6.007v-8.68C34.924,23.237,18.548,25.91,0,36.094
		c0,0,4.011-1.472,8.74-1.378c3.19,20.412,13.359,38.514,33.539,45.861V42.195C36.313,39.6,30.882,39.596,30.882,39.596z"/>
	<path d="M42.279,42.195v38.382c5.868-2.133,10.875-5.198,15.136-8.945C58.802,53.467,50.087,45.607,42.279,42.195z"/>
	<g>
		<linearGradient id="SVGID_1_" gradientUnits="userSpaceOnUse" x1="43.0938" y1="24.4365" x2="81.9633" y2="63.3061">
			<stop  offset="0" style="stop-color:#FFFFFF"/>
			<stop  offset="0.147" style="stop-color:#FFFFFF;stop-opacity:0.853"/>
			<stop  offset="1" style="stop-color:#FFFFFF;stop-opacity:0"/>
		</linearGradient>
		<path fill="url(#SVGID_1_)" d="M44.2,25.557c0.014,0.007,0.025,0.013,0.039,0.021c0.001-0.002,0.003-0.003,0.004-0.003
			C44.229,25.568,44.214,25.563,44.2,25.557z"/>
		<linearGradient id="SVGID_2_" gradientUnits="userSpaceOnUse" x1="42.8604" y1="24.4668" x2="85.2999" y2="66.9063">
			<stop  offset="0" style="stop-color:#FFFFFF"/>
			<stop  offset="0.147" style="stop-color:#FFFFFF;stop-opacity:0.853"/>
			<stop  offset="1" style="stop-color:#FFFFFF;stop-opacity:0"/>
		</linearGradient>
		<path fill="url(#SVGID_2_)" d="M44.2,25.557c-0.258-0.119-0.53-0.233-0.826-0.324C43.667,25.323,43.94,25.438,44.2,25.557z"/>
		<linearGradient id="SVGID_3_" gradientUnits="userSpaceOnUse" x1="12.4082" y1="54.9561" x2="54.5167" y2="97.0645">
			<stop  offset="0" style="stop-color:#FFFFFF"/>
			<stop  offset="0.147" style="stop-color:#FFFFFF;stop-opacity:0.853"/>
			<stop  offset="1" style="stop-color:#FFFFFF;stop-opacity:0"/>
		</linearGradient>
		<path fill="url(#SVGID_3_)" d="M17.988,60.791c0.001-0.004,0.001-0.006,0.002-0.01c-0.251-0.419-0.506-0.848-0.762-1.261
			C17.484,59.936,17.735,60.368,17.988,60.791z"/>
		<linearGradient id="SVGID_4_" gradientUnits="userSpaceOnUse" x1="12.8486" y1="54.4844" x2="55.1118" y2="96.7476">
			<stop  offset="0" style="stop-color:#FFFFFF"/>
			<stop  offset="0.147" style="stop-color:#FFFFFF;stop-opacity:0.853"/>
			<stop  offset="1" style="stop-color:#FFFFFF;stop-opacity:0"/>
		</linearGradient>
		<path fill="url(#SVGID_4_)" d="M16.775,58.762c-0.275-0.507-0.539-1.008-0.811-1.513C16.235,57.754,16.5,58.255,16.775,58.762z"/>
		<linearGradient id="SVGID_5_" gradientUnits="userSpaceOnUse" x1="12.6064" y1="54.7461" x2="54.7692" y2="96.9088">
			<stop  offset="0" style="stop-color:#FFFFFF"/>
			<stop  offset="0.147" style="stop-color:#FFFFFF;stop-opacity:0.853"/>
			<stop  offset="1" style="stop-color:#FFFFFF;stop-opacity:0"/>
		</linearGradient>
		<path fill="url(#SVGID_5_)" d="M17.229,59.521c-0.15-0.259-0.307-0.513-0.453-0.759C16.922,59.008,17.078,59.262,17.229,59.521z"
			/>
		<linearGradient id="SVGID_6_" gradientUnits="userSpaceOnUse" x1="13.1094" y1="54.2236" x2="55.361" y2="96.4753">
			<stop  offset="0" style="stop-color:#FFFFFF"/>
			<stop  offset="0.147" style="stop-color:#FFFFFF;stop-opacity:0.853"/>
			<stop  offset="1" style="stop-color:#FFFFFF;stop-opacity:0"/>
		</linearGradient>
		<path fill="url(#SVGID_6_)" d="M15.965,57.249c-0.136-0.252-0.276-0.504-0.409-0.748C15.688,56.745,15.829,56.997,15.965,57.249z"
			/>
		<linearGradient id="SVGID_7_" gradientUnits="userSpaceOnUse" x1="14.1328" y1="53.1963" x2="56.4524" y2="95.5159">
			<stop  offset="0" style="stop-color:#FFFFFF"/>
			<stop  offset="0.147" style="stop-color:#FFFFFF;stop-opacity:0.853"/>
			<stop  offset="1" style="stop-color:#FFFFFF;stop-opacity:0"/>
		</linearGradient>
		<path fill="url(#SVGID_7_)" d="M14.438,54.171c-0.367-0.777-0.706-1.563-1.031-2.37C13.731,52.608,14.07,53.394,14.438,54.171z"/>
		<linearGradient id="SVGID_8_" gradientUnits="userSpaceOnUse" x1="13.7021" y1="53.6406" x2="55.6279" y2="95.5663">
			<stop  offset="0" style="stop-color:#FFFFFF"/>
			<stop  offset="0.147" style="stop-color:#FFFFFF;stop-opacity:0.853"/>
			<stop  offset="1" style="stop-color:#FFFFFF;stop-opacity:0"/>
		</linearGradient>
		<path fill="url(#SVGID_8_)" d="M14.805,54.946c-0.125-0.25-0.245-0.51-0.367-0.775C14.56,54.437,14.68,54.696,14.805,54.946z"/>
		<linearGradient id="SVGID_9_" gradientUnits="userSpaceOnUse" x1="13.3838" y1="53.9277" x2="55.8377" y2="96.3817">
			<stop  offset="0" style="stop-color:#FFFFFF"/>
			<stop  offset="0.147" style="stop-color:#FFFFFF;stop-opacity:0.853"/>
			<stop  offset="1" style="stop-color:#FFFFFF;stop-opacity:0"/>
		</linearGradient>
		<path fill="url(#SVGID_9_)" d="M15.556,56.501c-0.253-0.518-0.498-1.03-0.751-1.555C15.057,55.471,15.303,55.983,15.556,56.501z"
			/>
	</g>
</g>
<g>
</g>
<g>
</g>
<g>
</g>
<g>
</g>
<g>
</g>
<g>
</g>
<g>
</g>
<g>
</g>
<g>
</g>
</svg>
