<?xml version="1.0" encoding="utf-8"?>
<!-- Generator: Adobe Illustrator 16.0.3, SVG Export Plug-In . SVG Version: 6.00 Build 0)  -->
<!DOCTYPE svg PUBLIC "-//W3C//DTD SVG 1.1//EN" "http://www.w3.org/Graphics/SVG/1.1/DTD/svg11.dtd">
<svg version="1.1" id="image" xmlns="http://www.w3.org/2000/svg" xmlns:xlink="http://www.w3.org/1999/xlink" x="0px" y="0px"
	 width="174.991px" height="183.208px" viewBox="0 0 174.991 183.208" enable-background="new 0 0 174.991 183.208"
	 xml:space="preserve">
<g display="none">
	<g display="inline">
		<path fill="#176CB6" d="M-40.802,221.515c0,3.544-0.714,6.366-2.148,8.497c-1.432,2.102-3.58,3.918-6.475,5.482l7.678,14.538
			c1.621,3.28,3.929,4.714,6.892,4.332l0.327,2.624c-1.737,0.536-3.772,0.811-6.104,0.789c-4.111,0-7.362-2.102-9.71-6.335
			l-6.668-12.471c-0.48-0.907-1.27-1.495-2.332-1.739c-1.062-0.273-2.645-0.394-4.725-0.394v14.768c0,1.129,0.31,1.977,0.935,2.478
			c0.624,0.536,1.669,0.771,3.134,0.771h1.05c0.383,0,0.59,0.24,0.59,0.688v1.708l-0.131,0.164
			c-3.688-0.121-6.477-0.164-8.399-0.164l-11.847,0.164l-0.134-0.164v-1.708c0-0.427,0.205-0.653,0.593-0.688h1.048
			c2.735,0,4.102-1.083,4.102-3.249v-35.835c0-1.127-0.166-1.987-0.469-2.512c-0.279-0.558-0.887-0.835-1.794-0.835h-0.493
			l-2.231,0.227c-0.382,0-0.582-0.182-0.621-0.521v-2.511c0.862-0.213,3.4-0.39,7.678-0.604c4.245-0.18,8.478-0.301,12.634-0.301
			c4.938,0,9.135,1.092,12.517,3.216C-42.501,214.054-40.802,217.237-40.802,221.515z M-49.858,222.564
			c0-3.48-0.762-6.144-2.314-7.961c-1.52-1.846-3.493-2.741-5.891-2.741c-2.121,0-4.125,0.156-6.004,0.494v21.07h3.642
			c3.642,0,6.284-0.893,7.991-2.642C-50.728,229.034-49.858,226.293-49.858,222.564z"/>
		<path fill="#176CB6" d="M-14.349,254.001c-3.386,2.737-6.538,4.093-9.488,4.071c-3.221,0-5.549-0.631-6.948-1.892
			c-1.413-1.229-2.14-3.154-2.14-5.741c0-2.789,1.149-4.936,3.38-6.432c2.267-1.527,5.585-2.919,9.923-4.206l5.371-1.552
			c0-4.382-0.429-7.322-1.313-8.791c-0.854-1.469-2.164-2.209-3.906-2.209c-1.494,0-2.725,0.214-3.743,0.681
			c-1.017,0.455-1.537,1.084-1.537,1.865c0,0.563,0.097,1.148,0.227,1.808c0.134,0.664,0.229,1.136,0.229,1.352
			c0,0.607-0.414,1.233-1.197,1.874c-0.775,0.64-1.68,0.959-2.673,0.959c-2.3,0-3.489-1.069-3.512-3.149
			c0-2.121,1.468-4.04,4.43-5.727c2.963-1.709,5.887-2.576,8.829-2.576c3.68,0,6.632,0.941,8.922,2.797
			c2.286,1.889,3.418,5.282,3.418,10.183v10.849c0,1.088,0.021,1.908,0.065,2.488c0.041,0.585,0.173,1.18,0.327,1.849
			c0.184,0.671,0.479,1.176,0.901,1.483c0.416,0.308,0.987,0.446,1.673,0.446c0.688,0,1.217-0.248,1.608-0.707
			c0.426-0.459,0.63-0.706,0.674-0.706c0.162,0,0.346,0.172,0.607,0.574c0.263,0.373,0.379,0.686,0.379,0.902
			c0,0.209-0.28,0.576-0.807,1.133c-0.555,0.526-1.39,1.083-2.559,1.608c-1.14,0.557-2.324,0.837-3.574,0.837
			c-2.23,0-3.882-0.329-5.035-0.987c-1.123-0.657-1.9-1.686-2.366-3.084H-14.349z M-14.251,251.203v-10.155l-4.231,1.279
			c-2.419,0.755-4.071,1.689-4.957,2.768c-0.855,1.078-1.311,2.479-1.311,4.202c0,3.289,1.572,4.934,4.69,4.934
			C-18.659,254.23-16.714,253.191-14.251,251.203z"/>
		<path fill="#176CB6" d="M15.581,229.03c4.066-3.119,7.808-4.694,11.223-4.694c3.683,0,6.115,1.019,7.309,3.051
			c1.179,2.036,1.779,5.011,1.779,8.896v15.391c0,0.952,0.271,1.625,0.807,2.017c0.556,0.395,1.469,0.763,2.804,1.102l0.624,0.164
			c0.384,0.088,0.59,0.311,0.59,0.688v1.707l-0.159,0.133c-3.955-0.09-6.917-0.133-8.831-0.133l-8.337,0.133l-0.131-0.133v-1.707
			c0-0.337,0.176-0.578,0.558-0.688l0.33-0.1c1.289-0.338,2.213-0.705,2.744-1.098c0.552-0.395,0.831-1.089,0.831-2.085v-15.885
			c0-2.69-0.213-4.595-0.607-5.677c-0.393-1.081-1.251-1.639-2.51-1.639c-2.287,0-5.294,1.19-9.022,3.51v19.69
			c0,0.952,0.29,1.648,0.866,2.085c0.571,0.449,1.462,0.803,2.707,1.098l0.297,0.1c0.382,0.088,0.567,0.311,0.593,0.688v1.707
			l-0.135,0.133c-3.772-0.09-6.618-0.133-8.563-0.133l-8.598,0.133l-0.163-0.133v-1.707c0-0.337,0.208-0.578,0.59-0.688l0.656-0.164
			c1.334-0.297,2.27-0.641,2.789-1.033c0.547-0.395,0.787-1.089,0.787-2.085v-18.181c0-1.742-0.113-2.904-0.377-3.43
			c-0.229-0.559-0.672-0.857-1.229-0.902l-3.053-0.294l-0.163-2.923c6.058-0.657,10.216-1.27,12.503-1.837
			c0.339,0,0.493,0.098,0.493,0.229l-0.135,4.694H15.581z"/>
		<path fill="#176CB6" d="M75.591,228.901c-1.383,0-2.304-0.742-2.73-2.215c-0.304-0.627-0.683-0.927-1.146-0.907
			c-0.779,0-1.499,0.47-2.188,1.347c2.738,2.194,4.097,5.112,4.077,8.813c0,3.453-1.322,6.2-3.933,8.24
			c-2.628,2.043-5.78,3.063-9.478,3.063c-2.58,0-4.646-0.363-6.2-1.088c-0.328,0.77-0.519,2.001-0.542,3.643
			c0,1.328,0.355,2.317,1.059,2.955c0.707,0.637,1.493,0.954,2.314,0.954c0.044,0,0.948-0.081,2.684-0.278
			c1.734-0.163,3.161-0.278,4.296-0.278c5.385,0,9.274,0.907,11.662,2.692c2.345,1.813,3.552,3.663,3.552,5.609
			c0,2.615-1.094,4.984-3.312,7.074c-2.183,2.119-4.911,3.703-8.181,4.82c-3.241,1.124-6.633,1.66-10.147,1.66
			c-3.545,0-6.518-0.733-9.008-2.199c-2.459-1.468-3.694-3.752-3.694-6.825s2.004-5.993,6.029-8.729
			c-2.451-1.424-3.7-3.223-3.71-5.435c-0.014-2.181,1.327-4.483,4.015-6.881c-1.4-0.92-2.527-2.256-3.408-3.974
			c-0.867-1.721-1.304-3.526-1.304-5.353c0-3.323,1.376-6.032,4.125-8.128c2.752-2.099,6.038-3.146,9.836-3.146
			c2.991,0,5.324,0.449,6.999,1.379c1.046-0.93,2.304-1.664,3.811-2.2c1.472-0.567,2.753-0.854,3.804-0.854
			c1.283,0,2.241,0.335,2.938,1.003c0.696,0.668,1.075,1.416,1.075,2.279c0,0.875-0.292,1.605-0.879,2.151
			C77.416,228.652,76.623,228.901,75.591,228.901z M55.874,258.466c-1.141,0-1.993-0.089-2.489-0.296
			c-1.122,1.129-1.698,3.229-1.698,6.333c0,2.301,0.929,4.138,2.753,5.45c1.821,1.278,3.49,1.936,5.002,1.936
			c3.138,0,6.037-0.77,8.735-2.346c2.696-1.543,4.045-3.606,4.045-6.188c0-3.412-3.658-5.117-10.946-5.117
			c-0.252,0-1.005,0.043-2.29,0.162C58.24,258.442,57.205,258.466,55.874,258.466z M65.431,236.199c0-2.902-0.513-5.157-1.572-6.821
			c-1.091-1.665-2.507-2.483-4.287-2.483c-1.504,0-2.748,0.687-3.697,2.056c-0.917,1.371-1.407,3.35-1.407,6
			c0,2.378,0.514,4.563,1.474,6.576c0.992,2.017,2.541,3.026,4.615,3.026C63.803,244.529,65.431,241.746,65.431,236.199z"/>
		<path fill="#176CB6" d="M109.005,249.244l1.866,1.574c-2.394,4.857-6.798,7.275-13.185,7.254c-5.354,0-9.354-1.482-11.96-4.383
			c-2.638-2.931-3.954-6.6-3.954-11.076c0-5.402,1.646-9.799,4.9-13.19c3.291-3.392,7.032-5.087,11.227-5.087
			c5.021,0,8.54,1.277,10.595,3.8c2.052,2.557,3.076,5.698,3.076,9.462c0,1.014-0.977,1.506-2.9,1.506H90.499v1.937
			c0,3.688,0.939,6.755,2.882,9.205s4.343,3.692,7.201,3.692C103.601,253.938,106.396,252.362,109.005,249.244z M90.851,236.214
			h11.859c0.121-0.119,0.162-0.36,0.162-0.824c0-2.711-0.544-4.685-1.603-5.983c-1.056-1.303-2.201-1.951-3.435-1.951
			c-0.47,0-1.025,0.132-1.637,0.328c-0.613,0.233-1.282,0.613-2.014,1.173c-0.731,0.53-1.414,1.44-2.046,2.665
			C91.505,232.876,91.081,234.419,90.851,236.214z"/>
		<path fill="#176CB6" d="M120.858,251.73v-23.258h-3.416c-1.333,0-2.008-0.221-2.033-0.711v-1.03c0-0.376,0.27-0.745,0.804-1.11
			c0.504-0.365,1.353-0.563,2.479-0.563h2.166v-0.723c0-5.852,1.371-10.485,4.119-13.832c2.744-3.381,6.021-5.07,9.795-5.07
			c1.826,0,3.469,0.202,4.891,0.672c1.454,0.439,2.527,1,3.248,1.657c0.72,0.624,1.272,1.232,1.643,1.789
			c0.358,0.525,0.522,1.012,0.522,1.394c0,0.997-0.312,1.845-0.935,2.578c-0.593,0.765-1.438,1.132-2.477,1.132
			c-1.871,0-3.403-0.99-4.53-2.969c-1.084-2.09-2.354-3.136-3.773-3.136c-2.896,0-4.333,4.232-4.333,12.726v3.782h7.156
			c0.994,0,1.508,0.258,1.508,0.74v1.48c0,0.815-0.887,1.213-2.624,1.193h-6.04v23.06c0,1.876,1.345,2.962,4.039,3.259l1.311,0.164
			c0.384,0.088,0.601,0.311,0.624,0.688v1.707l-0.165,0.133c-4.771-0.09-8.095-0.133-10.04-0.133l-8.994,0.133l-0.163-0.133v-1.707
			c0-0.337,0.218-0.578,0.625-0.688l1.018-0.164c1.29-0.178,2.187-0.488,2.755-0.936
			C120.607,253.436,120.858,252.727,120.858,251.73z"/>
		<path fill="#176CB6" d="M141.007,242.023c0-5.291,1.504-9.54,4.452-12.813c2.977-3.24,7.088-4.875,12.335-4.875
			c2.906,0,5.469,0.527,7.752,1.533c2.28,1.034,4.041,2.391,5.31,4.051c1.243,1.692,2.192,3.53,2.819,5.453
			c0.624,1.953,0.934,3.952,0.934,5.996c0,1.938-0.351,3.842-1.043,5.769c-0.716,1.897-1.691,3.704-3.019,5.329
			c-1.328,1.656-3.09,3.001-5.315,4.036c-2.195,1.034-4.718,1.569-7.504,1.569c-5.156,0-9.236-1.646-12.236-4.936
			C142.521,249.88,141.007,246.164,141.007,242.023z M157.071,227.455c-2.202,0-3.924,1.295-5.156,3.854
			c-1.202,2.593-1.816,5.617-1.816,9.075c0,2.034,0.304,4.112,0.896,6.234c0.598,2.155,1.604,4.053,3.002,5.759
			c1.398,1.706,3.045,2.577,4.942,2.577c1.737,0,3.255-0.837,4.586-2.478c1.331-1.61,1.998-4.547,1.998-8.746
			c0-5.198-0.76-9.217-2.309-12.03C161.694,228.859,159.648,227.455,157.071,227.455z"/>
		<path fill="#176CB6" d="M192.431,229.03c3.024-3.119,6.193-4.694,9.518-4.694c1.259,0,2.298,0.421,3.119,1.296
			c0.785,0.844,1.183,1.8,1.183,2.841c0,1.201-0.346,2.207-1.035,3.018c-0.689,0.81-1.604,1.247-2.707,1.247
			c-0.655,0-1.256-0.171-1.855-0.476c-0.601-0.308-1.065-0.646-1.428-1.016c-0.392-0.374-0.765-0.718-1.148-1.036
			c-0.384-0.315-0.722-0.461-1.018-0.461c-0.876,0-1.794,0.331-2.722,0.985c-1.263,0.876-1.906,2.604-1.906,5.185v15.688
			c0,0.655,0.137,1.176,0.444,1.612c0.306,0.428,0.682,0.751,1.135,0.949c0.479,0.229,1.135,0.445,1.965,0.623l0.625,0.164
			c0.383,0.088,0.591,0.311,0.591,0.688v1.707l-0.163,0.133c-3.953-0.09-6.915-0.133-8.86-0.133l-8.599,0.133l-0.134-0.133v-1.707
			c0-0.414,0.154-0.623,0.493-0.688l0.724-0.164c1.246-0.252,2.163-0.608,2.725-1.067c0.59-0.459,0.884-1.165,0.884-2.117v-18.114
			c0-1.742-0.133-2.904-0.376-3.43c-0.263-0.559-0.673-0.857-1.264-0.902l-3.052-0.294l-0.134-2.53
			c6.029-0.787,10.218-1.551,12.471-2.229c0.341,0,0.525,0.098,0.525,0.229l-0.162,4.694H192.431z"/>
		<path fill="#176CB6" d="M237.055,251.001c-2.407,4.736-6.335,7.093-11.815,7.071c-5.256,0-9.212-1.366-11.93-4.099
			c-2.717-2.734-4.072-6.563-4.072-11.515c0-5.219,1.592-9.556,4.752-12.98c3.156-3.43,6.991-5.143,11.504-5.143
			c3.908,0,6.884,0.739,8.925,2.248c2.044,1.477,3.071,3.298,3.071,5.495c0,1.173-0.379,2.163-1.071,2.938
			c-0.696,0.811-1.608,1.197-2.794,1.197c-1.201,0-2.204-0.322-2.978-0.967c-0.807-0.646-1.237-1.471-1.327-2.51
			c-0.338-3.532-1.704-5.282-4.09-5.282c-2.029,0-3.749,1.197-5.157,3.559c-1.437,2.332-2.142,5.553-2.142,9.597
			c0,3.925,0.918,7.229,2.718,9.847c1.832,2.647,3.979,3.974,6.477,3.974c2.694,0,5.502-1.627,8.45-4.85L237.055,251.001z"/>
		<path fill="#176CB6" d="M268.529,249.244l1.901,1.574c-2.397,4.857-6.799,7.275-13.21,7.254c-5.331,0-9.329-1.482-11.969-4.383
			c-2.603-2.931-3.92-6.6-3.92-11.076c0-5.402,1.641-9.799,4.899-13.19c3.288-3.392,7.03-5.087,11.227-5.087
			c5.02,0,8.539,1.277,10.593,3.8c2.052,2.557,3.079,5.698,3.079,9.462c0,1.014-0.979,1.506-2.921,1.506h-18.184v1.937
			c0,3.688,0.974,6.755,2.916,9.205c1.91,2.45,4.315,3.692,7.201,3.692C263.157,253.938,265.953,252.362,268.529,249.244z
			 M250.389,236.214h11.882c0.086-0.119,0.13-0.36,0.13-0.824c0-2.711-0.513-4.685-1.571-5.983c-1.06-1.303-2.226-1.951-3.437-1.951
			c-0.503,0-1.027,0.132-1.638,0.328c-0.61,0.233-1.28,0.613-2.014,1.173c-0.732,0.53-1.411,1.44-2.046,2.665
			C251.063,232.876,250.637,234.419,250.389,236.214z"/>
	</g>
</g>
<g>
	<path fill="#176CB6" d="M17.801,28.439c-0.929,14.104-0.65,28.354,0.959,42.211c26.129-13.926,54.486-21.725,77.37-24.456V0
		C61.829,0,53.403,28.439,17.801,28.439z"/>
	<path d="M174.46,28.439C138.856,28.439,130.431,0,96.13,0v46.194c48.141-5.75,72.021,10.939,0,40.024v0.371
		c6.985,0.833,63.244,8.666,76.435,47.072l0.049,0.02c0,0-0.056-17.563-5.421-31.347C174.002,79.143,176.103,53.588,174.46,28.439z"
		/>
	<path d="M96.13,56.636v19.736C109.437,66.668,107.718,59.277,96.13,56.636z"/>
	<path fill="#176CB6" d="M70.215,90.028c11.696-4.852,20.183-9.48,25.915-13.656V56.636C79.407,52.835,42.174,58.912,0,82.066
		c0,0,9.121-3.346,19.873-3.132c7.254,46.409,30.373,87.565,76.257,104.273V95.94C82.563,90.037,70.215,90.028,70.215,90.028z"/>
	<path d="M96.13,95.94v87.268c13.344-4.851,24.727-11.819,34.412-20.34C133.696,121.567,113.883,103.699,96.13,95.94z"/>
</g>
<g>
</g>
<g>
</g>
<g>
</g>
<g>
</g>
<g>
</g>
<g>
</g>
<g>
</g>
<g>
</g>
<g>
</g>
</svg>
